#!OML:ASF I:\Actors\actors\Patient Classification 1\Patient 1\Session 1\Subject1.ASF
:FULLY-SPECIFIED
:DEGREES
408
root 0.671852 17.5647 7.85777 4.99178 -0.891619 -8.51136
lowerback 1.59958 -0.530528 5.81758
upperback -6.95742 -0.212539 2.29361
thorax -8.24321 -0.400996 -0.813804
lowerneck -10.7175 -6.45714 -4.90609
upperneck 27.0346 -11.1056 9.87456
head 11.3985 -4.47042 2.95797
rclavicle 1.36167e-014 -1.72943e-014
rhumerus 38.3236 45.191 -70.8443
rradius 141.678
rwrist -35.6308
rhand -12.7879 -63.1904
rfingers 7.12502
rthumb 13.2977 92.7461
lclavicle 1.36167e-014 -1.72943e-014
lhumerus 33.17 -25.3964 75.0032
lradius 56.4524
lwrist -26.789
lhand -57.6245 -55.9674
lfingers 7.12502
lthumb -29.8876 -28.3598
rfemur -4.06722 21.428 26.2213
rtibia 6.0857
rfoot -11.5758 -18.939
rtoes 0.0826075
lfemur -0.769778 -26.6299 -7.34522
ltibia 2.00196
lfoot -9.29691 33.8931
ltoes -8.53309
409
root 0.655874 17.5689 7.83586 4.74841 0.0803061 -8.73839
lowerback 1.74355 -0.89725 5.32039
upperback -6.93315 -0.69297 2.74097
thorax -8.31178 -0.587172 -0.0206255
lowerneck -11.093 -6.36784 -5.04751
upperneck 27.8147 -11.0242 9.8394
head 11.7773 -4.41389 2.98308
rclavicle -1.08338e-014 3.8763e-014
rhumerus 39.9259 46.1983 -68.8588
rradius 142.316
rwrist -38.5728
rhand -11.8044 -65.3971
rfingers 7.12502
rthumb 14.2455 94.8885
lclavicle -1.08338e-014 3.8763e-014
lhumerus 37.1328 -23.8717 77.0151
lradius 43.7101
lwrist -35.7292
lhand -54.9368 -48.5467
lfingers 7.12502
lthumb -27.3197 -20.5063
rfemur -4.1948 20.8245 26.5379
rtibia 6.67568
rfoot -11.9044 -19.1993
rtoes 0.751159
lfemur -0.876374 -27.3093 -6.97893
ltibia 1.88938
lfoot -8.9985 33.7406
ltoes -9.32618
410
root 0.646941 17.576 7.81355 4.51073 1.24852 -9.01493
lowerback 1.97851 -1.362 4.99786
upperback -6.89923 -1.30098 3.02379
thorax -8.42154 -0.853909 0.518961
lowerneck -11.6029 -6.25798 -4.76289
upperneck 28.408 -11.0229 9.91737
head 12.1073 -4.33676 2.96081
rclavicle 2.60905e-015 -7.7526e-015
rhumerus 39.6121 46.2279 -68.5448
rradius 142.46
rwrist -42.4681
rhand -10.9676 -65.8854
rfingers 7.12502
rthumb 15.0517 95.3182
lclavicle 2.60905e-015 -7.7526e-015
lhumerus 40.8819 -21.3191 80.492
lradius 30.8251
lwrist -46.8744
lhand -53.0499 -45.2949
lfingers 7.12502
lthumb -25.5135 -16.9831
rfemur -4.39994 20.1904 26.8508
rtibia 7.37645
rfoot -12.4005 -19.5592
rtoes 1.75645
lfemur -1.11015 -28.1199 -6.52195
ltibia 1.79373
lfoot -8.73722 33.4689
ltoes -9.83497
411
root 0.644434 17.5845 7.79066 4.32801 2.39728 -9.29206
lowerback 2.19516 -2.0218 4.77853
upperback -6.84414 -2.166 3.35392
thorax -8.49355 -1.25089 1.07987
lowerneck -11.9753 -5.98327 -4.49159
upperneck 28.6032 -10.7088 9.92025
head 12.2174 -4.14793 2.95767
rclavicle 3.96948e-014 -7.0171e-014
rhumerus 39.5468 46.3218 -68.4059
rradius 142.397
rwrist -44.9457
rhand -10.1992 -65.3388
rfingers 7.12502
rthumb 15.7918 94.7146
lclavicle 3.96948e-014 -7.0171e-014
lhumerus 43.0005 -11.7384 91.5991
lradius 17.3137
lwrist -68.5155
lhand -52.6351 -47.938
lfingers 7.12502
lthumb -25.1162 -19.57
rfemur -4.70116 19.6185 27.1147
rtibia 8.08546
rfoot -12.8127 -20.0191
rtoes 2.21141
lfemur -1.44452 -29.0895 -6.06167
ltibia 1.73886
lfoot -8.49011 33.3459
ltoes -10.2438
412
root 0.647303 17.5946 7.76939 4.28518 3.25327 -9.46459
lowerback 2.33006 -2.75053 4.61349
upperback -6.81313 -3.1267 3.68766
thorax -8.53129 -1.6985 1.62606
lowerneck -12.4176 -5.59978 -4.3643
upperneck 28.9591 -10.2005 9.85297
head 12.3934 -3.89082 2.9853
rclavicle -4.94477e-015 3.62782e-015
rhumerus 40.0808 46.8923 -68.0571
rradius 142.363
rwrist -46.5319
rhand -9.58891 -64.6203
rfingers 7.12502
rthumb 16.3795 93.9487
lclavicle -4.94477e-015 3.62782e-015
lhumerus 50.4848 23.9085 133.985
lradius 12.4262
lwrist -130.39
lhand -50.0886 -46.7533
lfingers 7.12502
lthumb -22.6741 -18.0654
rfemur -5.1168 19.2584 27.2096
rtibia 8.68217
rfoot -13.0179 -20.5225
rtoes 2.25691
lfemur -1.87419 -29.9952 -5.71447
ltibia 1.75489
lfoot -8.25551 33.4626
ltoes -10.5627
413
root 0.659013 17.6079 7.75564 4.40522 3.57493 -9.45681
lowerback 2.27158 -3.29717 4.60597
upperback -6.83167 -3.85658 3.84489
thorax -8.51526 -2.05093 1.86774
lowerneck -12.992 -5.19476 -4.06433
upperneck 29.7967 -9.73462 9.68525
head 12.7876 -3.62898 2.94885
rclavicle 1.53437e-014 1.01256e-014
rhumerus 40.6199 47.6872 -68.0327
rradius 142.299
rwrist -47.927
rhand -9.05126 -64.0513
rfingers 7.12502
rthumb 16.8971 93.3362
lclavicle 1.53437e-014 1.01256e-014
lhumerus 60.1447 35.1021 153.696
lradius 14.6843
lwrist -153.435
lhand -51.927 -44.7024
lfingers 7.12502
lthumb -24.4375 -16.241
rfemur -5.53635 19.2155 27.0649
rtibia 9.05176
rfoot -13.0913 -20.8653
rtoes 2.4187
lfemur -2.27451 -30.3926 -5.60167
ltibia 1.82917
lfoot -8.27143 33.5808
ltoes -10.1721
414
root 0.679955 17.6209 7.75246 4.63263 3.21564 -9.33816
lowerback 1.94366 -3.51122 4.94921
upperback -6.82973 -4.15071 3.80114
thorax -8.35533 -2.22024 1.6386
lowerneck -13.7209 -4.67902 -2.71003
upperneck 30.8508 -9.05259 8.43294
head 13.1761 -3.27633 2.34211
rclavicle 2.29783e-014 -3.11595e-014
rhumerus 40.7357 48.2563 -68.379
rradius 142.3
rwrist -49.6718
rhand -8.82178 -63.1391
rfingers 7.12502
rthumb 17.118 92.405
lclavicle 2.29783e-014 -3.11595e-014
lhumerus 54.2548 30.5435 141.46
lradius 12.3056
lwrist -131.301
lhand -54.222 -51.27
lfingers 7.12502
lthumb -26.6358 -23.1238
rfemur -5.8679 19.5827 26.8091
rtibia 9.19792
rfoot -13.0445 -20.9736
rtoes 2.36236
lfemur -2.41709 -30.0931 -5.71522
ltibia 1.85209
lfoot -8.47318 33.5837
ltoes -9.42791
